<?xml version="1.0" standalone="no"?>
<!DOCTYPE svg PUBLIC "-//W3C//DTD SVG 20010904//EN"
 "http://www.w3.org/TR/2001/REC-SVG-20010904/DTD/svg10.dtd">
<svg version="1.0" xmlns="http://www.w3.org/2000/svg"
 width="776.000000pt" height="776.000000pt" viewBox="0 0 776.000000 776.000000"
 preserveAspectRatio="xMidYMid meet">
<metadata>
Created by potrace 1.14, written by Peter Selinger 2001-2017
</metadata>
<g transform="translate(0.000000,776.000000) scale(0.100000,-0.100000)"
fill="#000000" stroke="none">
<path d="M1667 6984 c-1 -1 -31 -4 -67 -8 -247 -24 -444 -91 -624 -211 -90
-61 -86 -57 -183 -154 -77 -77 -203 -248 -203 -277 0 -7 -4 -14 -8 -16 -9 -3
-70 -142 -77 -173 -2 -11 -9 -36 -15 -55 -35 -116 -32 -306 10 -530 7 -36 14
-76 16 -90 3 -14 9 -41 14 -60 5 -19 11 -47 14 -63 3 -15 7 -35 10 -45 3 -9 7
-28 10 -42 2 -14 11 -53 19 -88 9 -34 16 -66 16 -70 1 -4 3 -20 6 -37 29 -182
37 -361 21 -470 -12 -77 -45 -174 -84 -245 -41 -74 -37 -69 -97 -137 -80 -89
-245 -182 -375 -209 -19 -4 -38 -9 -42 -10 -5 -1 -12 -2 -18 -3 -6 0 -10 -44
-10 -106 0 -112 -1 -110 55 -119 34 -5 105 -27 150 -46 17 -8 32 -14 35 -14
10 -2 125 -70 136 -81 6 -5 26 -24 45 -41 105 -96 176 -228 205 -384 17 -90 6
-325 -22 -470 -3 -14 -7 -41 -10 -60 -3 -19 -11 -60 -19 -90 -8 -30 -16 -66
-19 -80 -4 -21 -24 -111 -40 -180 -2 -8 -7 -35 -11 -60 -4 -25 -9 -54 -11 -65
-2 -11 -6 -38 -9 -60 -3 -22 -8 -51 -11 -65 -3 -14 -7 -86 -9 -160 -5 -189 21
-304 111 -483 34 -68 99 -169 138 -215 58 -68 170 -171 215 -196 8 -5 20 -13
26 -18 40 -33 245 -144 245 -132 0 2 11 -3 25 -12 14 -9 25 -13 25 -9 0 4 6 3
13 -3 11 -9 72 -26 79 -22 2 1 16 -4 33 -10 58 -22 162 -36 294 -39 89 -2 131
1 127 7 -3 6 -3 13 1 15 5 3 6 35 3 73 -4 49 -9 68 -20 70 -64 12 -180 52
-255 90 -186 92 -295 232 -341 439 -13 58 -12 313 1 375 3 14 7 43 10 65 2 22
7 51 10 65 3 14 8 43 11 65 2 22 18 99 34 170 16 72 32 144 35 160 2 17 7 41
10 55 3 14 8 48 11 75 3 28 9 66 13 85 8 38 6 290 -3 330 -10 48 -38 145 -44
155 -4 6 -7 15 -8 20 -6 39 -118 241 -168 305 -45 57 -205 204 -267 245 -75
51 -271 151 -334 171 -5 2 -56 20 -113 40 -98 35 -113 49 -66 58 43 9 160 49
172 58 6 6 12 8 12 5 0 -7 127 46 200 83 41 20 148 87 160 100 3 3 19 16 35
29 44 33 126 113 160 156 17 20 35 43 42 49 26 28 133 210 138 236 1 3 8 21
17 41 9 20 23 60 31 90 15 49 19 70 33 149 11 59 4 250 -12 380 -3 25 -7 57
-7 73 -1 15 -6 27 -10 27 -5 0 -5 4 -2 10 3 5 1 27 -4 47 -6 21 -13 54 -15 73
-3 19 -7 44 -10 55 -2 11 -9 40 -15 65 -11 51 -15 71 -30 150 -16 86 -19 102
-26 176 -4 38 -9 78 -11 89 -5 26 -5 202 1 235 25 157 115 303 245 401 30 23
95 61 110 64 3 1 26 12 52 24 26 12 86 32 133 44 71 18 85 25 81 39 -2 10 -1
20 2 22 4 2 5 29 4 60 l-4 56 -64 -2 c-36 -1 -66 -3 -67 -4z"/>
<path d="M5959 6959 c-1 -19 0 -38 1 -44 1 -5 2 -27 1 -47 -1 -29 3 -38 16
-38 64 0 306 -101 369 -154 111 -91 176 -184 217 -306 22 -66 29 -115 27 -210
-1 -85 -3 -118 -16 -220 -9 -80 -10 -83 -39 -230 -33 -164 -33 -165 -35 -165
-1 0 -3 -9 -5 -20 -1 -11 -5 -33 -9 -50 -6 -28 -18 -107 -30 -185 -26 -178
-24 -376 5 -485 6 -22 12 -47 14 -56 10 -52 97 -230 155 -318 55 -83 232 -261
306 -308 123 -79 388 -196 477 -210 34 -5 89 -33 65 -33 -9 0 -29 -5 -45 -12
-15 -6 -30 -12 -33 -13 -3 -1 -14 -5 -25 -9 -316 -118 -457 -199 -610 -350
-103 -102 -164 -186 -221 -302 -21 -44 -39 -81 -39 -84 0 -3 -8 -25 -17 -50
-40 -104 -58 -219 -54 -350 3 -69 7 -134 9 -146 3 -12 8 -45 12 -75 4 -30 16
-99 27 -154 19 -98 22 -111 33 -157 11 -42 36 -173 41 -213 4 -22 7 -49 9 -60
14 -90 18 -147 19 -260 1 -71 -2 -146 -5 -165 -23 -126 -79 -238 -164 -325
-56 -58 -149 -125 -172 -125 -6 0 -16 -7 -23 -15 -7 -9 -15 -13 -18 -11 -2 3
-17 -1 -33 -10 -16 -8 -68 -25 -116 -38 -74 -19 -88 -26 -89 -44 -1 -11 -4
-27 -7 -36 -4 -9 -1 -16 5 -16 8 0 9 -3 2 -10 -5 -5 -8 -26 -6 -46 l4 -36 142
6 c144 5 165 7 226 20 19 4 42 8 50 10 8 2 22 5 30 9 8 3 40 13 70 22 116 35
302 137 410 224 72 58 190 183 190 200 0 6 4 11 8 11 5 0 15 12 23 27 8 16 17
30 20 33 20 16 106 208 135 300 36 115 39 337 9 515 -3 17 -7 44 -10 60 -6 35
-8 44 -29 150 -9 44 -22 98 -27 120 -6 22 -13 49 -15 60 -4 23 -22 109 -30
145 -17 79 -17 84 -30 230 -21 233 1 371 79 513 29 53 94 135 132 169 53 46
81 64 148 98 70 35 155 65 240 84 l27 6 0 104 0 104 -27 7 c-16 4 -38 9 -51
11 -58 11 -158 52 -231 95 -108 62 -225 204 -272 328 -71 187 -71 441 1 761 6
25 13 55 15 68 3 12 7 30 10 40 9 36 56 256 60 286 6 34 11 75 21 150 9 72 11
215 3 261 -15 83 -29 139 -48 190 -25 67 -119 241 -164 300 -197 264 -502 440
-832 481 -22 3 -51 7 -65 9 -14 3 -69 8 -122 11 l-98 7 -1 -34z"/>
<path d="M2880 5289 c-62 -28 -134 -105 -155 -168 -44 -133 21 -284 149 -345
l51 -25 609 -1 c335 0 612 -2 614 -5 3 -3 -71 -105 -135 -185 -7 -8 -49 -62
-92 -120 -44 -58 -84 -109 -88 -115 -5 -5 -24 -30 -43 -55 -19 -25 -37 -47
-40 -50 -3 -3 -25 -32 -50 -65 -24 -33 -50 -66 -57 -75 -7 -8 -62 -80 -123
-160 -61 -80 -122 -158 -135 -175 -53 -68 -81 -104 -100 -131 -11 -15 -31 -42
-45 -58 -14 -17 -28 -35 -33 -41 -60 -80 -93 -121 -99 -123 -5 -2 -8 -8 -8
-14 0 -5 -6 -15 -12 -23 -29 -29 -48 -56 -48 -65 0 -5 -8 -15 -17 -22 -10 -7
-60 -69 -112 -138 -52 -69 -98 -126 -103 -128 -4 -2 -8 -10 -8 -18 0 -8 -4
-14 -9 -14 -6 0 -25 -30 -43 -67 -30 -61 -33 -76 -33 -153 1 -73 5 -93 30
-144 35 -70 99 -128 169 -155 49 -19 81 -20 993 -20 919 -1 943 -1 995 19 99
37 170 137 174 248 5 117 -49 207 -153 259 l-57 28 -633 0 c-500 0 -633 3
-633 13 0 6 5 12 10 12 6 0 10 6 10 14 0 8 4 16 8 18 5 2 69 82 142 178 74 96
147 191 162 210 16 19 32 40 36 45 23 31 139 182 147 192 6 6 40 51 77 100 57
74 291 378 346 450 53 69 133 173 218 283 52 69 101 132 107 140 43 52 149
194 157 211 6 10 8 19 4 19 -3 0 -1 7 7 16 20 25 21 164 1 216 -9 24 -20 45
-24 46 -5 2 -8 9 -8 17 0 21 -76 88 -132 117 l-53 27 -945 0 c-920 0 -946 -1
-990 -20z"/>
</g>
</svg>
